<?xml version="1.0" encoding="UTF-8"?>
<svg id="Layer_1" data-name="Layer 1" xmlns="http://www.w3.org/2000/svg" viewBox="0 0 459.46 323.79">
  <defs>
    <style>
      .cls-1 {
        fill: #fff;
      }

      .cls-2 {
        fill: #93278f;
        opacity: .71;
      }
    </style>
  </defs>
  <rect class="cls-2" x="64.24" y="37.63" width="353" height="263"/>
  <g>
    <path d="m35.03,130.18c-2.59-5.05-3.94-14.56-4.06-28.54-.18-5.54-2.34-9.82-6.47-12.84l-8.68-5.82c-5.23-4.37-9.54-10.62-12.93-18.75C-1.73,52.42-.81,40.01,5.66,27.02,10.95,17.04,18.56,9.29,28.47,3.75,36.78-.44,47.34-1.12,60.15,1.71l18.47,5.54,16.07,4.16,18.19,5.91c7.94,2.77,15.64,2.96,23.09.55,3.82-1.29,6.03-1.94,6.65-1.94.98.31,1.02,1.75.09,4.34-1.79,4.56-4.31,8.4-7.57,11.54-3.57,2.89-7.73,4.13-12.47,3.69l-21.89-4.53c-6.47-.18-12.44,1.26-17.92,4.34l-14.41,11.08c-4.68,4.19-8.16,8.81-10.44,13.85l-7.94,18.56c-2.03,6.22-.71,10.62,3.97,13.21,9.48,3.82,17.39,2.22,23.74-4.8l6.56-16.16c4.68-7.08,7.85-12.9,9.51-17.46l1.2-4.71.09-.28h.09v.18l.18,2.31,5.08,20.78c.37,1.54-.86,6.62-3.69,15.24-.31,1.05-.65,9.36-1.02,24.94-.12,2.71-.46,4.56-1.02,5.54-.31.31-.71.31-1.2,0-.43-.55-.86-1.42-1.29-2.59l-3.88-17.83c-.62-2.96-1.51-4.65-2.68-5.08-.92,0-2.92.68-6,2.03-5.23,2.16-12.32,3.39-21.24,3.69-5.73.31-9.05,2.53-9.97,6.65-.62,5.48.49,11.67,3.32,18.56,1.85,3.94,5.11,8.13,9.79,12.56,3.94,3.63,7.48,6.16,10.62,7.57,2.83,1.05,5.73,1.32,8.68.83,3.51-.92,7.88-3.23,13.11-6.93,5.36-3.88,9.17-7.39,11.45-10.53l10.44-14.78c1.97-1.72,3.66-2.55,5.08-2.49,1.42.49,1.91,2,1.48,4.53-1.35,4.62-5.3,9.85-11.82,15.7l-13.02,11.45-10.9,8.59c-4.25,2.77-8.56,4.5-12.93,5.17-8.31.92-15.92-.49-22.81-4.25-4.99-3.02-10.31-9.79-15.98-20.32Zm-11.18-47.1c4.19,2.53,7.54,1.94,10.07-1.75l11.08-24.01c9.73-11.58,15.08-17.67,16.07-18.29l16.72-7.39c2.22-1.42,3.45-2.8,3.69-4.16-.25-1.42-1.48-2.71-3.69-3.88l-16.81-4.53-14.96-3.51c-7.88-1.17-15.12-.22-21.7,2.86-6.28,3.32-11.02,8.19-14.22,14.59-3.32,7.51-4.25,15.3-2.77,23.37,1.05,4.8,3.2,9.85,6.47,15.15,3.45,5.36,6.8,9.21,10.07,11.54Z"/>
    <path d="m183.26,141.45c-15.89-7.02-27-17.67-33.34-31.96-5.11-12.99-5.6-26.94-1.48-41.84,2.22-7.14,7.73-15.67,16.53-25.58,5.3-5.79,10.07-9.85,14.32-12.19,8.25-4.06,12.84-6.53,13.76-7.39l8.87-13.48c1.05-1.54,1.94-2.62,2.68-3.23.37-.12.71-.15,1.02-.09.37.43.65,1.11.83,2.03l-.65,16.53c0,2.34.31,3.85.92,4.53.8.31,2.06-.09,3.79-1.2l16.81-12.01c6.4-4.25,11.73-6.13,15.98-5.63,1.29.31,7.7,3.29,19.21,8.96l15.51,6.1c4.13,2.16,8.53,5.82,13.21,10.99,5.54,6.22,9.11,11.33,10.71,15.33,2.71,7.7,3.08,16.5,1.11,26.41l-5.63,16.99-7.57,14.32-11.54,14.69c-4.31,4.62-9.76,8.4-16.35,11.36-5.48,2.34-9.76,4.89-12.84,7.67l-8.22,8.03c-3.57,2.59-7.61,4-12.1,4.25-9.3-.06-24.47-4.59-45.53-13.58Zm8.87-71.48c-.74-3.26-2.56-7.3-5.45-12.1-2.28-3.82-2.62-7.26-1.02-10.34l7.57-12.47c.62-2.09.55-3.75-.18-4.99-1.05-.98-2.62-1.35-4.71-1.11-5.3,1.17-10.34,4.77-15.15,10.81l-9.61,15.24c-4.74,8.81-6.65,17.92-5.73,27.34.74,5.3,2.06,10.62,3.97,15.98,1.97,4.8,4.43,8.96,7.39,12.47,8.68,9.54,19.95,16.84,33.8,21.89,17.86,6.22,32.54,6.59,44.05,1.11,5.73-3.02,11.42-7.39,17.09-13.11,3.82-3.94,6.96-8.16,9.42-12.65l6.56-17.55c3.38-12.56,3.29-22.87-.28-30.94-2.89-5.6-7.94-11.82-15.15-18.66-4.68-4.06-10.93-7.2-18.75-9.42l-17.27-4.25c-15.02-1.85-23.4,2-25.12,11.54-.06,2.09,1.02,5.17,3.23,9.24,1.23,2.59,1.02,5.26-.65,8.03l-6.74,9.05c-1.97,3.57-2.86,7.48-2.68,11.73l4.06,27.71c-.31,3.94-1.23,6.25-2.77,6.93-1.66.06-3.29-1.54-4.9-4.8l-1.02-36.67Z"/>
    <path d="m202.3,304.68c-4.37-2.34-9.51-3.57-15.42-3.69-5.23.18-10.28,1.42-15.15,3.69l-5.36,2.96h-.28c-.12-.06-.18-.18-.18-.37l1.11-2.68,8.77-14.32c3.14-3.39,6.77-5.08,10.9-5.08l15.24,3.69c4.74.92,7.82-.28,9.24-3.6,1.11-3.88,1.11-8.34,0-13.39-1.48-4.68-4.37-7.11-8.68-7.3-14.04.31-22.87-.77-26.51-3.23-8.37-6.34-14.44-12.44-18.19-18.29-6.65-11.94-7.42-25.58-2.31-40.91,4.31-11.45,15.15-20.72,32.51-27.8,16.68-6.16,33.59-6.06,50.7.28,11.39,4.68,20.01,9.02,25.86,13.02,2.83,2.09,6.34,5.6,10.53,10.53l11.73,13.76c2.15,3.57,4.25,8.47,6.28,14.68l4.34,15.7c1.23,8.07.58,16.59-1.94,25.58l-6.47,16.26c-2.96,6.4-6.04,11.39-9.24,14.96l-19.86,14.59c-6.34,4-15.7,3.85-28.08-.46-4.43-1.48-7.97-1.35-10.62.37-1.85,1.66-3.42,4.06-4.71,7.2-.68,1.79-1.14,2.77-1.39,2.96-.25,0-.74-1.08-1.48-3.23-2.59-7.26-6.37-12.56-11.36-15.89Zm71.95-8.68c3.69-3.51,7.14-10.4,10.34-20.69,2.89-9.54,2.18-20.01-2.12-31.4-3.45-9.24-5.94-15.05-7.48-17.46l-11.18-12.47-10.62-10.34-14.69-8.87-16.25-6.65c-8-2.4-15.21-3.82-21.61-4.25-4.68-.12-9.33.46-13.95,1.75l-13.02,4.71c-5.97,2.89-10.07,7.24-12.28,13.02-4.43,13.05-4.65,23.8-.65,32.23,4.74,8.68,9.94,14.81,15.61,18.38,6.28,3.51,12.84,5.57,19.67,6.19,4.25.12,6.71-1.26,7.39-4.16l.37-7.48c.06-.25,2-4.34,5.82-12.28l4.16-24.29c.62-2.65,1.35-4.4,2.22-5.26.49-.31.98-.28,1.48.09.37.62.68,1.48.92,2.59l.92,26.51c3.32,9.42,4.71,14.72,4.16,15.89l-7.2,11.08c-1.17,2.77-1.82,5.67-1.94,8.68l1.94,13.21c1.42,6.03,4.4,10.04,8.96,12.01l21.15,5.26c5.66,1.11,10.53,1.26,14.59.46,5.05-1.17,9.48-3.33,13.3-6.47Z"/>
    <path d="m338.43,307.26c-15.89-7.02-27-17.67-33.34-31.96-5.11-12.99-5.6-26.94-1.48-41.84,2.22-7.14,7.73-15.67,16.53-25.58,5.3-5.79,10.07-9.85,14.32-12.19,8.25-4.06,12.84-6.53,13.76-7.39l8.87-13.48c1.05-1.54,1.94-2.62,2.68-3.23.37-.12.71-.15,1.02-.09.37.43.65,1.11.83,2.03l-.65,16.53c0,2.34.31,3.85.92,4.53.8.31,2.06-.09,3.79-1.2l16.81-12.01c6.4-4.25,11.73-6.13,15.98-5.63,1.29.31,7.7,3.29,19.21,8.96l15.52,6.1c4.12,2.16,8.53,5.82,13.21,10.99,5.54,6.22,9.11,11.33,10.71,15.33,2.71,7.7,3.08,16.5,1.11,26.42l-5.63,16.99-7.57,14.32-11.54,14.68c-4.31,4.62-9.76,8.4-16.35,11.36-5.48,2.34-9.76,4.9-12.84,7.67l-8.22,8.03c-3.57,2.59-7.61,4-12.1,4.25-9.3-.06-24.47-4.59-45.53-13.58Zm8.87-71.48c-.74-3.26-2.56-7.3-5.45-12.1-2.28-3.82-2.62-7.26-1.02-10.34l7.57-12.47c.62-2.09.55-3.75-.18-4.99-1.05-.98-2.62-1.35-4.71-1.11-5.3,1.17-10.34,4.77-15.15,10.81l-9.61,15.24c-4.74,8.81-6.65,17.92-5.73,27.34.74,5.3,2.06,10.62,3.97,15.98,1.97,4.8,4.43,8.96,7.39,12.47,8.68,9.54,19.95,16.84,33.8,21.89,17.86,6.22,32.54,6.59,44.05,1.11,5.73-3.02,11.42-7.39,17.09-13.11,3.82-3.94,6.96-8.16,9.42-12.65l6.56-17.55c3.39-12.56,3.29-22.87-.28-30.94-2.89-5.6-7.94-11.82-15.15-18.66-4.68-4.06-10.93-7.2-18.75-9.42l-17.27-4.25c-15.02-1.85-23.4,2-25.12,11.54-.06,2.09,1.02,5.17,3.23,9.24,1.23,2.59,1.02,5.26-.65,8.03l-6.74,9.05c-1.97,3.57-2.86,7.48-2.68,11.73l4.06,27.71c-.31,3.94-1.23,6.25-2.77,6.93-1.66.06-3.29-1.54-4.9-4.8l-1.02-36.67Z"/>
  </g>
  <g>
    <path class="cls-1" d="m349.27,46.18v-2.09l1.58-1.58c4.56-.7,7.54.17,8.95,2.62l-1.06,4.75-3.15,4.73-4.22,4.22v1.06l1.58.53,7.89-.53-2.64,3.67-8.95-1.06-2.62.53,5.78-6.84,4.2-7.89-1.56-2.64-5.8.53Z"/>
    <path class="cls-1" d="m375.34,42.5c3.86-1.06,6.84.87,8.95,5.78,1.04,5.97-1.6,11.05-7.91,15.26-4.91.7-8.24-1.4-9.99-6.31-.7-7.02,2.28-11.93,8.95-14.73Zm-5.8,5.78c-1.04,5.97.19,10,3.69,12.12,3.86,1.39,6.66-.01,8.42-4.22,1.05-4.91-.7-8.6-5.28-11.06-1.39-1.04-3.67.01-6.84,3.17Z"/>
    <path class="cls-1" d="m388.25,46.18v-2.09l1.58-1.58c4.56-.7,7.54.17,8.95,2.62l-1.06,4.75-3.15,4.73-4.22,4.22v1.06l1.58.53,7.89-.53-2.64,3.67-8.95-1.06-2.62.53,5.78-6.84,4.2-7.89-1.56-2.64-5.8.53Z"/>
    <path class="cls-1" d="m346.24,66.63l60.02,1.14,3.15-2.11,2.11-4.22c1.05-3.86-1.4-6.31-7.37-7.37l1.58-2.09c3.86-.35,6.84.87,8.95,3.67,0,3.5-1.41,7.02-4.22,10.53-3.5,3.5-5.78,5.08-6.84,4.73l-57.39-1.28c-.35-1.06-1.41-1.96,0-3Zm58.44-25.18l5.26,1.06,2.64,2.11-3.17,4.2-2.68,1.58,2.19-3.75c-1.42-1.35-3.54-2.03-6.35-2.03l2.11-3.17Z"/>
  </g>
</svg>